<svg width="546.2" height="245.1" viewBox="0 0 546.2 245.1" xmlns="http://www.w3.org/2000/svg" xmlns:xlink="http://www.w3.org/1999/xlink" xml:space="preserve" overflow="hidden"><defs></defs><line x1="346.7" y1="57.5" x2="346.7" y2="241.8" stroke="#6B6969" stroke-width="0.25" fill="#6B6969"/><line x1="308.6" y1="57.5" x2="308.6" y2="241.8" stroke="#6B6969" stroke-width="0.25" fill="#6B6969"/><line x1="384.6" y1="61.3" x2="384.6" y2="241.8" stroke="#6B6969" stroke-width="0.25" fill="#6B6969"/><line x1="422.5" y1="57.5" x2="422.5" y2="238" stroke="#6B6969" stroke-width="0.25" fill="#6B6969"/><line x1="460.8" y1="57.5" x2="460.8" y2="238" stroke="#6B6969" stroke-width="0.25" fill="#6B6969"/><line x1="498.9" y1="57.5" x2="498.9" y2="238" stroke="#6B6969" stroke-width="0.25" fill="#6B6969"/><rect x="308.6" y="67.4" width="37.9" height="13.7" fill="#A0100B"/><rect x="308.6" y="94.4" width="37.9" height="13.7" fill="#A0100B"/><rect x="308.6" y="147.5" width="37.9" height="13.7" fill="#A0100B"/><rect x="308.6" y="202.4" width="37.9" height="13.7" fill="#A0100B"/><rect x="308.6" y="228" width="227.5" height="13.7" fill="#A0100B"/><rect x="308.6" y="174.9" width="75.8" height="13.7" fill="#A0100B"/><rect x="308.6" y="120.9" width="113.7" height="13.7" fill="#A0100B"/><text font-family="ArialMT" font-size="19.2237" transform="matrix(1.2707 0 0 1 302.149 47.5366)">0</text><text font-family="ArialMT" font-size="19.2237" transform="matrix(1.2707 0 0 1 336.477 47.5366)">1</text><text font-family="ArialMT" font-size="19.2237" transform="matrix(1.2707 0 0 1 378.366 47.5366)">2</text><text font-family="ArialMT" font-size="19.2237" transform="matrix(1.2707 0 0 1 419.117 47.5366)">3</text><text font-family="ArialMT" font-size="19.2237" transform="matrix(1.2707 0 0 1 455.771 47.5366)">4</text><text font-family="ArialMT" font-size="19.2237" transform="matrix(1.2707 0 0 1 495.319 47.5366)">5</text><text font-family="ArialMT" font-size="19.2237" transform="matrix(1.2707 0 0 1 528.741 47.0972)">6</text><text font-family="ArialMT" font-size="19.2237" transform="matrix(1.2707 0 0 1 161.589 76.9849)">Thalassemia</text><text font-family="ArialMT" font-size="19.2237" transform="matrix(1.2707 0 0 1 191.468 103.987)">Sickle cell</text><text font-family="ArialMT" font-size="19.2237" transform="matrix(1.2707 0 0 1 127.635 131.907)">Aplastic anemia</text><text font-family="ArialMT" font-size="19.2237" transform="matrix(1.2707 0 0 1 126.264 158.458)">Fanconi anemia</text><text font-family="ArialMT" font-size="19.2237" transform="matrix(1.2707 0 0 1 77.3624 185.919)">Hemoglobinopathies</text><text font-family="ArialMT" font-size="19.2237" transform="matrix(1.2707 0 0 1 43.4522 213.379)">Epo-resistant anaemias</text><text font-family="ArialMT" font-size="19.2237" transform="matrix(1.2707 0 0 1 8.47311e-05 238.868)">Diamond-Blackfan anaemia</text><text font-family="ArialMT" font-size="19.2237" transform="matrix(1.2707 0 0 1 333.026 16.4971)">Number of datasets</text></svg>